<?xml version="1.0" standalone="no"?><!DOCTYPE svg PUBLIC "-//W3C//DTD SVG 1.1//EN" "http://www.w3.org/Graphics/SVG/1.1/DTD/svg11.dtd"><svg t="1710310119320" class="icon" viewBox="0 0 1024 1024" version="1.1" xmlns="http://www.w3.org/2000/svg" p-id="1650" xmlns:xlink="http://www.w3.org/1999/xlink" width="200" height="200"><path d="M496.341333 128.170667c164.992 9.642667 169.685333 178.389333 149.76 247.808 199.637333-63.445333 276.138667 26.453333 289.450667 79.274666 23.978667 126.890667-96.469333 165.205333-159.701333 168.533334 127.744 158.549333 66.56 237.866667 19.968 257.706666-143.786667 39.637333-226.261333-62.805333-249.6-118.954666-63.829333 134.784-172.970667 142.08-219.562667 128.853333-135.765333-39.68-76.544-181.76-29.952-247.808-191.658667-31.701333-219.605333-125.525333-209.621333-168.533333 31.957333-158.549333 199.68-132.138667 279.466666-99.072-31.914667-206.165333 73.216-251.136 129.792-247.808z" fill="#FFB1CE" p-id="1651"></path><path d="M423.253333 193.536c-21.76 27.093333-40.234667 79.573333-25.045333 177.493333a32 32 0 0 1-43.861333 34.517334c-36.778667-15.232-92.373333-28.117333-140.373334-20.309334-23.424 3.84-43.690667 12.330667-59.562666 26.581334-15.658667 14.08-29.141333 35.669333-35.968 69.546666a30.976 30.976 0 0 1-0.170667 0.981334c-2.474667 10.581333-1.408 34.176 21.76 59.733333 23.210667 25.642667 70.4 54.784 161.92 69.930667a32 32 0 0 1 20.906667 50.005333c-21.674667 30.762667-44.586667 77.226667-47.658667 117.76-1.450667 19.626667 1.877333 35.712 9.856 48.128 7.808 12.117333 22.314667 24.490667 50.432 32.725333 33.493333 9.386667 125.525333 7.082667 181.845333-111.786666a32 32 0 0 1 58.453334 1.408c9.642667 23.210667 32.426667 57.429333 67.84 81.066666 33.834667 22.528 80.170667 36.181333 141.397333 19.925334 14.165333-6.698667 31.018667-22.613333 34.432-50.474667 3.669333-29.952-7.253333-80.896-68.522667-156.928a32 32 0 0 1 23.253334-52.053333c27.648-1.450667 66.816-10.709333 95.189333-31.701334 13.781333-10.154667 24.405333-22.570667 30.677333-37.717333 6.144-14.805333 8.96-34.261333 4.266667-60.16-4.693333-17.408-20.949333-44.501333-57.045333-61.184-36.437333-16.810667-96.853333-24.661333-191.488 5.418667a32 32 0 0 1-40.448-39.338667c8.448-29.44 11.733333-81.834667-4.778667-126.293333-8.021333-21.717333-20.394667-40.533333-38.144-54.4-17.578667-13.781333-42.368-24.234667-77.952-26.282667-19.669333-1.152-49.365333 6.186667-71.253333 33.408z m-49.92-40.064a150.613333 150.613333 0 0 1 124.885334-57.258667c46.933333 2.730667 84.565333 17.024 113.664 39.765334 28.885333 22.613333 47.445333 52.181333 58.709333 82.56 14.08 37.930667 17.408 78.677333 15.018667 113.621333 80.512-17.749333 142.421333-10.496 188.501333 10.794667 54.826667 25.301333 83.541333 68.992 92.501333 104.533333l0.426667 1.834667c6.954667 36.992 3.712 69.632-7.893333 97.578666a153.514667 153.514667 0 0 1-51.754667 64.682667c-23.210667 17.152-49.834667 28.288-75.008 35.157333 41.984 63.445333 56.064 117.248 50.602667 161.792-6.784 55.168-42.538667 88.704-74.666667 102.4a32.085333 32.085333 0 0 1-4.010667 1.365334c-81.365333 22.442667-147.456 4.736-196.181333-27.733334a254.72 254.72 0 0 1-61.696-58.666666c-72.789333 103.509333-176.128 111.146667-228.522667 96.256l-0.213333-0.042667c-39.68-11.605333-68.608-31.829333-86.442667-59.562667-17.621333-27.434667-22.058667-58.453333-19.84-87.552 2.858667-38.4 17.493333-77.226667 34.346667-109.226666-74.026667-18.261333-122.88-47.274667-153.173333-80.725334-36.096-39.850667-44.117333-84.394667-36.778667-116.693333 9.173333-45.226667 28.586667-79.616 55.808-104.106667 27.050667-24.32 59.648-36.906667 92.117333-42.154666 42.922667-6.997333 87.808-1.664 125.696 8.021333-4.736-80.853333 13.013333-138.154667 43.904-176.64z" fill="#333333" p-id="1652"></path><path d="M553.344 529.664a32 32 0 0 1 4.992 45.013333l-85.333333 106.666667a32 32 0 1 1-50.005334-40.021333l85.333334-106.666667a32 32 0 0 1 45.013333-4.992z" fill="#333333" p-id="1653"></path><path d="M373.76 528.085333a32 32 0 0 1 36.821333-26.325333l128 21.333333a32 32 0 1 1-10.496 63.146667l-128-21.333333a32 32 0 0 1-26.325333-36.821334z" fill="#333333" p-id="1654"></path><path d="M507.477333 373.674667a32 32 0 0 1 36.181334 27.136l21.333333 149.333333a32 32 0 0 1-63.36 9.045333l-21.333333-149.333333a32 32 0 0 1 27.178666-36.181333z" fill="#333333" p-id="1655"></path><path d="M691.712 501.888a32 32 0 0 1-20.266667 40.448l-128 42.666667a32 32 0 0 1-20.224-60.672l128-42.666667a32 32 0 0 1 40.490667 20.224z" fill="#333333" p-id="1656"></path><path d="M508.330667 534.656a32 32 0 0 1 45.013333-4.992l106.666667 85.333333a32 32 0 1 1-40.021334 50.005334l-106.666666-85.333334a32 32 0 0 1-4.992-45.013333z" fill="#333333" p-id="1657"></path></svg>